<svg xmlns="http://www.w3.org/2000/svg" xmlns:xlink="http://www.w3.org/1999/xlink" contentStyleType="text/css" data-diagram-type="CLASS" height="1021.2px" preserveAspectRatio="none" style="width:618px;height:1021px;background:#FFFFFF;" version="1.1" viewBox="0 0 618 1021" width="618px" zoomAndPan="magnify"><title>Core Semantics</title><defs/><g><g class="title" data-source-line="5"><text fill="#000000" font-family="sans-serif" font-size="16.8" font-weight="bold" lengthAdjust="spacing" textLength="126.9844" x="237.1096" y="30.1289">Core Semantics</text></g><!--class AxisPolarity--><g class="entity" data-entity="AxisPolarity" data-source-line="7" data-uid="ent0002" id="entity_AxisPolarity"><rect fill="#F1F1F1" height="124.6359" rx="3" ry="3" style="stroke:#181818;stroke-width:0.6;" width="161.9496" x="135" y="356.5453"/><ellipse cx="169.1067" cy="375.7453" fill="#F1F1F1" rx="13.2" ry="13.2" style="stroke:#181818;stroke-width:1.2;"/><path d="M166.8379,381.2203 Q166.5754,381.5391 166.4067,381.6328 Q166.2379,381.7266 166.0129,381.7266 Q165.5442,381.7266 165.2442,381.4078 Q164.9629,381.0891 164.9629,380.3766 L164.9629,378.9891 Q164.9629,378.2578 165.2442,377.9578 Q165.5442,377.6391 166.0129,377.6391 Q166.3692,377.6391 166.6129,377.8266 Q166.8567,378.0141 166.9879,378.4641 Q167.1192,378.8953 167.2504,379.0641 Q167.5504,379.3641 168.2817,379.6828 Q169.0129,380.0016 169.8942,380.0016 Q171.2629,380.0016 172.1254,379.3641 Q172.6879,378.9703 172.6879,378.4078 Q172.6879,378.0328 172.4254,377.6953 Q172.1629,377.3578 171.5442,377.1516 Q171.1504,377.0016 169.7629,376.7391 Q168.0942,376.4203 167.2317,375.9891 Q166.3692,375.5578 165.8629,374.7703 Q165.3754,373.9641 165.3754,373.0266 Q165.3754,371.5641 166.5942,370.4766 Q167.8317,369.3703 169.8004,369.3703 Q170.5879,369.3703 171.2442,369.5391 Q171.9192,369.7078 172.4817,370.0641 Q172.8754,369.6891 173.2692,369.6891 Q173.7192,369.6891 174.0004,370.0078 Q174.2817,370.3078 174.2817,371.0391 L174.2817,372.5766 Q174.2817,373.3078 174.0004,373.6266 Q173.7192,373.9266 173.2692,373.9266 Q172.8942,373.9266 172.6129,373.7016 Q172.3879,373.5328 172.2754,373.0266 Q172.1817,372.5203 172.0129,372.2953 Q171.7129,371.9203 171.1317,371.6766 Q170.5692,371.4141 169.8004,371.4141 Q168.6942,371.4141 168.0567,371.9203 Q167.4192,372.4266 167.4192,372.9891 Q167.4192,373.3641 167.6817,373.7203 Q167.9442,374.0766 168.4504,374.2828 Q168.7879,374.4141 170.3442,374.7328 Q171.9192,375.0328 172.7629,375.4078 Q173.6067,375.7641 174.1692,376.5516 Q174.7317,377.3391 174.7317,378.4266 Q174.7317,379.9453 173.6629,380.8453 Q172.2379,382.0453 170.0442,382.0453 Q169.2004,382.0453 168.3942,381.8391 Q167.6067,381.6328 166.8379,381.2203 Z " fill="#000000"/><text fill="#000000" font-family="sans-serif" font-size="16.8" lengthAdjust="spacing" textLength="87.757" x="189.4859" y="382.7016">AxisPolarity</text><line style="stroke:#181818;stroke-width:0.6;" x1="136.2" x2="295.7496" y1="394.9453" y2="394.9453"/><text fill="#000000" font-family="sans-serif" font-size="16.8" lengthAdjust="spacing" textLength="115.7707" x="142.2" y="417.8742">TagAxisId Axis;</text><text fill="#000000" font-family="sans-serif" font-size="16.8" lengthAdjust="spacing" textLength="147.5496" x="142.2" y="440.2195">TagId NegativeTag;</text><text fill="#000000" font-family="sans-serif" font-size="16.8" lengthAdjust="spacing" textLength="140.0684" x="142.2" y="462.5648">TagId PositiveTag;</text><line style="stroke:#181818;stroke-width:0.6;" x1="136.2" x2="295.7496" y1="471.5812" y2="471.5812"/></g><!--class TagAxisId--><g class="entity" data-entity="TagAxisId" data-source-line="14" data-uid="ent0003" id="entity_TagAxisId"><rect fill="#F1F1F1" height="214.0172" rx="3" ry="3" style="stroke:#181818;stroke-width:0.6;" width="113.0977" x="85.2" y="721.3453"/><ellipse cx="103.2" cy="740.5453" fill="#EB937F" rx="13.2" ry="13.2" style="stroke:#181818;stroke-width:1.2;"/><path d="M101.8313,741.5016 L101.8313,744.5016 L107.025,744.5016 L107.025,743.3953 Q107.025,742.6641 107.3062,742.3453 Q107.6063,742.0266 108.0562,742.0266 Q108.5063,742.0266 108.7875,742.3453 Q109.0688,742.6641 109.0688,743.3953 L109.0688,746.5453 L99.4688,746.5453 Q98.7188,746.5453 98.4,746.2641 Q98.1,745.9828 98.1,745.5141 Q98.1,745.0641 98.4188,744.7828 Q98.7375,744.5016 99.4688,744.5016 L99.7875,744.5016 L99.7875,736.5141 L99.4688,736.5141 Q98.7188,736.5141 98.4,736.2328 Q98.1,735.9516 98.1,735.4828 Q98.1,735.0328 98.4,734.7516 Q98.7188,734.4703 99.4688,734.4703 L108.6187,734.4703 L108.6187,737.5828 Q108.6187,738.3141 108.3375,738.6328 Q108.075,738.9328 107.6063,738.9328 Q107.1563,738.9328 106.875,738.6328 Q106.5938,738.3141 106.5938,737.5828 L106.5938,736.5141 L101.8313,736.5141 L101.8313,739.4578 L103.6125,739.4578 Q103.6125,738.6703 103.7625,738.4453 Q104.0813,737.9578 104.6438,737.9578 Q105.0938,737.9578 105.375,738.2766 Q105.6563,738.5766 105.6563,739.3078 L105.6563,741.6703 Q105.6563,742.3266 105.5063,742.5516 Q105.1875,743.0203 104.6438,743.0203 Q104.0813,743.0203 103.7625,742.5328 Q103.6125,742.3078 103.6125,741.5016 L101.8313,741.5016 Z " fill="#000000"/><text fill="#000000" font-family="sans-serif" font-size="16.8" lengthAdjust="spacing" textLength="74.6977" x="120" y="747.5016">TagAxisId</text><line style="stroke:#181818;stroke-width:0.6;" x1="86.4" x2="197.0977" y1="759.7453" y2="759.7453"/><text fill="#000000" font-family="sans-serif" font-size="16.8" lengthAdjust="spacing" textLength="79.3734" x="92.4" y="782.6742">TabooAxis</text><text fill="#000000" font-family="sans-serif" font-size="16.8" lengthAdjust="spacing" textLength="74.6895" x="92.4" y="805.0195">AffectAxis</text><text fill="#000000" font-family="sans-serif" font-size="16.8" lengthAdjust="spacing" textLength="68.1434" x="92.4" y="827.3648">CraftAxis</text><text fill="#000000" font-family="sans-serif" font-size="16.8" lengthAdjust="spacing" textLength="90.5625" x="92.4" y="849.7102">ImpulseAxis</text><text fill="#000000" font-family="sans-serif" font-size="16.8" lengthAdjust="spacing" textLength="73.7707" x="92.4" y="872.0555">IntentAxis</text><text fill="#000000" font-family="sans-serif" font-size="16.8" lengthAdjust="spacing" textLength="81.2191" x="92.4" y="894.4008">VitalityAxis</text><text fill="#000000" font-family="sans-serif" font-size="16.8" lengthAdjust="spacing" textLength="96.1816" x="92.4" y="916.7461">MeaningAxis</text><line style="stroke:#181818;stroke-width:0.6;" x1="86.4" x2="197.0977" y1="925.7625" y2="925.7625"/></g><!--class TagId--><g class="entity" data-entity="TagId" data-source-line="24" data-uid="ent0004" id="entity_TagId"><rect fill="#F1F1F1" height="370.4344" rx="3" ry="3" style="stroke:#181818;stroke-width:0.6;" width="98.4656" x="276" y="642.7453"/><ellipse cx="301.6976" cy="661.9453" fill="#EB937F" rx="13.2" ry="13.2" style="stroke:#181818;stroke-width:1.2;"/><path d="M300.3289,662.9016 L300.3289,665.9016 L305.5226,665.9016 L305.5226,664.7953 Q305.5226,664.0641 305.8039,663.7453 Q306.1039,663.4266 306.5539,663.4266 Q307.0039,663.4266 307.2851,663.7453 Q307.5664,664.0641 307.5664,664.7953 L307.5664,667.9453 L297.9664,667.9453 Q297.2164,667.9453 296.8976,667.6641 Q296.5976,667.3828 296.5976,666.9141 Q296.5976,666.4641 296.9164,666.1828 Q297.2351,665.9016 297.9664,665.9016 L298.2851,665.9016 L298.2851,657.9141 L297.9664,657.9141 Q297.2164,657.9141 296.8976,657.6328 Q296.5976,657.3516 296.5976,656.8828 Q296.5976,656.4328 296.8976,656.1516 Q297.2164,655.8703 297.9664,655.8703 L307.1164,655.8703 L307.1164,658.9828 Q307.1164,659.7141 306.8351,660.0328 Q306.5726,660.3328 306.1039,660.3328 Q305.6539,660.3328 305.3726,660.0328 Q305.0914,659.7141 305.0914,658.9828 L305.0914,657.9141 L300.3289,657.9141 L300.3289,660.8578 L302.1101,660.8578 Q302.1101,660.0703 302.2601,659.8453 Q302.5789,659.3578 303.1414,659.3578 Q303.5914,659.3578 303.8726,659.6766 Q304.1539,659.9766 304.1539,660.7078 L304.1539,663.0703 Q304.1539,663.7266 304.0039,663.9516 Q303.6851,664.4203 303.1414,664.4203 Q302.5789,664.4203 302.2601,663.9328 Q302.1101,663.7078 302.1101,662.9016 L300.3289,662.9016 Z " fill="#000000"/><text fill="#000000" font-family="sans-serif" font-size="16.8" lengthAdjust="spacing" textLength="42.9598" x="320.2082" y="668.9016">TagId</text><line style="stroke:#181818;stroke-width:0.6;" x1="277.2" x2="373.2656" y1="681.1453" y2="681.1453"/><text fill="#000000" font-family="sans-serif" font-size="16.8" lengthAdjust="spacing" textLength="58.841" x="283.2" y="704.0742">Profane</text><text fill="#000000" font-family="sans-serif" font-size="16.8" lengthAdjust="spacing" textLength="53.2301" x="283.2" y="726.4195">Sacred</text><text fill="#000000" font-family="sans-serif" font-size="16.8" lengthAdjust="spacing" textLength="34.5516" x="283.2" y="748.7648">Cold</text><text fill="#000000" font-family="sans-serif" font-size="16.8" lengthAdjust="spacing" textLength="44.7891" x="283.2" y="771.1102">Warm</text><text fill="#000000" font-family="sans-serif" font-size="16.8" lengthAdjust="spacing" textLength="33.6082" x="283.2" y="793.4555">Raw</text><text fill="#000000" font-family="sans-serif" font-size="16.8" lengthAdjust="spacing" textLength="49.5059" x="283.2" y="815.8008">Honed</text><text fill="#000000" font-family="sans-serif" font-size="16.8" lengthAdjust="spacing" textLength="32.673" x="283.2" y="838.1461">Fast</text><text fill="#000000" font-family="sans-serif" font-size="16.8" lengthAdjust="spacing" textLength="36.4137" x="283.2" y="860.4914">Slow</text><text fill="#000000" font-family="sans-serif" font-size="16.8" lengthAdjust="spacing" textLength="81.2437" x="283.2" y="882.8367">Malevolent</text><text fill="#000000" font-family="sans-serif" font-size="16.8" lengthAdjust="spacing" textLength="84.0656" x="283.2" y="905.182">Benevolent</text><text fill="#000000" font-family="sans-serif" font-size="16.8" lengthAdjust="spacing" textLength="51.3516" x="283.2" y="927.5273">Morbid</text><text fill="#000000" font-family="sans-serif" font-size="16.8" lengthAdjust="spacing" textLength="32.6813" x="283.2" y="949.8727">Vital</text><text fill="#000000" font-family="sans-serif" font-size="16.8" lengthAdjust="spacing" textLength="33.6246" x="283.2" y="972.218">Void</text><text fill="#000000" font-family="sans-serif" font-size="16.8" lengthAdjust="spacing" textLength="64.4438" x="283.2" y="994.5633">Meaning</text><line style="stroke:#181818;stroke-width:0.6;" x1="277.2" x2="373.2656" y1="1003.5797" y2="1003.5797"/></g><!--class AxisLean--><g class="entity" data-entity="AxisLean" data-source-line="41" data-uid="ent0005" id="entity_AxisLean"><rect fill="#F1F1F1" height="124.6359" rx="3" ry="3" style="stroke:#181818;stroke-width:0.6;" width="107.5113" x="465.6" y="63.1453"/><ellipse cx="483.6" cy="82.3453" fill="#EB937F" rx="13.2" ry="13.2" style="stroke:#181818;stroke-width:1.2;"/><path d="M482.2313,83.3016 L482.2313,86.3016 L487.425,86.3016 L487.425,85.1953 Q487.425,84.4641 487.7062,84.1453 Q488.0062,83.8266 488.4562,83.8266 Q488.9063,83.8266 489.1875,84.1453 Q489.4688,84.4641 489.4688,85.1953 L489.4688,88.3453 L479.8688,88.3453 Q479.1188,88.3453 478.8,88.0641 Q478.5,87.7828 478.5,87.3141 Q478.5,86.8641 478.8187,86.5828 Q479.1375,86.3016 479.8688,86.3016 L480.1875,86.3016 L480.1875,78.3141 L479.8688,78.3141 Q479.1188,78.3141 478.8,78.0328 Q478.5,77.7516 478.5,77.2828 Q478.5,76.8328 478.8,76.5516 Q479.1188,76.2703 479.8688,76.2703 L489.0187,76.2703 L489.0187,79.3828 Q489.0187,80.1141 488.7375,80.4328 Q488.475,80.7328 488.0062,80.7328 Q487.5563,80.7328 487.275,80.4328 Q486.9938,80.1141 486.9938,79.3828 L486.9938,78.3141 L482.2313,78.3141 L482.2313,81.2578 L484.0125,81.2578 Q484.0125,80.4703 484.1625,80.2453 Q484.4813,79.7578 485.0438,79.7578 Q485.4938,79.7578 485.775,80.0766 Q486.0563,80.3766 486.0563,81.1078 L486.0563,83.4703 Q486.0563,84.1266 485.9063,84.3516 Q485.5875,84.8203 485.0438,84.8203 Q484.4813,84.8203 484.1625,84.3328 Q484.0125,84.1078 484.0125,83.3016 L482.2313,83.3016 Z " fill="#000000"/><text fill="#000000" font-family="sans-serif" font-size="16.8" lengthAdjust="spacing" textLength="69.1113" x="500.4" y="89.3016">AxisLean</text><line style="stroke:#181818;stroke-width:0.6;" x1="466.8" x2="571.9113" y1="101.5453" y2="101.5453"/><text fill="#000000" font-family="sans-serif" font-size="16.8" lengthAdjust="spacing" textLength="66.3059" x="472.8" y="124.4742">Negative</text><text fill="#000000" font-family="sans-serif" font-size="16.8" lengthAdjust="spacing" textLength="54.157" x="472.8" y="146.8195">Neutral</text><text fill="#000000" font-family="sans-serif" font-size="16.8" lengthAdjust="spacing" textLength="58.8246" x="472.8" y="169.1648">Positive</text><line style="stroke:#181818;stroke-width:0.6;" x1="466.8" x2="571.9113" y1="178.1813" y2="178.1813"/></g><!--class TagPermutation--><g class="entity" data-entity="TagPermutation" data-source-line="47" data-uid="ent0006" id="entity_TagPermutation"><rect fill="#F1F1F1" height="303.3984" rx="3" ry="3" style="stroke:#181818;stroke-width:0.6;" width="184.8035" x="424.8" y="267.1453"/><ellipse cx="454.8941" cy="286.3453" fill="#ADD1B2" rx="13.2" ry="13.2" style="stroke:#181818;stroke-width:1.2;"/><path d="M458.2129,281.3953 Q458.4004,281.1328 458.6254,281.0016 Q458.8504,280.8703 459.1129,280.8703 Q459.5629,280.8703 459.8441,281.1891 Q460.1254,281.4891 460.1254,282.2203 L460.1254,283.9641 Q460.1254,284.6953 459.8441,285.0141 Q459.5629,285.3328 459.1129,285.3328 Q458.7004,285.3328 458.4566,285.0891 Q458.2129,284.8641 458.0816,284.2453 Q458.0254,283.8141 457.8004,283.5891 Q457.4066,283.1391 456.6754,282.8766 Q455.9441,282.6141 455.1941,282.6141 Q454.2754,282.6141 453.5066,283.0078 Q452.7566,283.4016 452.1566,284.3016 Q451.5754,285.2016 451.5754,286.4391 L451.5754,287.7516 Q451.5754,289.2328 452.6441,290.2266 Q453.7129,291.2016 455.6254,291.2016 Q456.7504,291.2016 457.5379,290.9016 Q458.0066,290.7141 458.5129,290.1891 Q458.8316,289.8703 459.0004,289.7766 Q459.1879,289.6828 459.4316,289.6828 Q459.8254,289.6828 460.1254,290.0016 Q460.4441,290.3016 460.4441,290.7141 Q460.4441,291.1266 460.0316,291.6141 Q459.4316,292.3078 458.4754,292.7016 Q457.1816,293.2453 455.6254,293.2453 Q453.8066,293.2453 452.3629,292.4953 Q451.1816,291.8953 450.3566,290.6203 Q449.5316,289.3266 449.5316,287.7891 L449.5316,286.4016 Q449.5316,284.8078 450.2629,283.4391 Q451.0129,282.0516 452.3254,281.3203 Q453.6379,280.5703 455.1191,280.5703 Q456.0004,280.5703 456.7691,280.7766 Q457.5566,280.9641 458.2129,281.3953 Z " fill="#000000"/><text fill="#000000" font-family="sans-serif" font-size="16.8" lengthAdjust="spacing" textLength="119.5277" x="474.3817" y="293.3016">TagPermutation</text><line style="stroke:#181818;stroke-width:0.6;" x1="426" x2="608.4035" y1="305.5453" y2="305.5453"/><text fill="#000000" font-family="sans-serif" font-size="16.8" lengthAdjust="spacing" textLength="99.9223" x="432" y="328.4742">-tagId : TagId</text><text fill="#000000" font-family="sans-serif" font-size="16.8" lengthAdjust="spacing" textLength="89.652" x="432" y="350.8195">-degree : int</text><text fill="#000000" font-family="sans-serif" font-size="16.8" lengthAdjust="spacing" textLength="119.5113" x="432" y="373.1648">-qualifier : string</text><text fill="#000000" font-family="sans-serif" font-size="16.8" lengthAdjust="spacing" textLength="162.4629" x="432" y="395.5102">-ownerEntityId : string</text><text fill="#000000" font-family="sans-serif" font-size="16.8" lengthAdjust="spacing" textLength="125.1141" x="432" y="417.8555">-sourceId : string</text><text fill="#000000" font-family="sans-serif" font-size="16.8" lengthAdjust="spacing" textLength="109.7332" x="432" y="440.2008">+TagId : TagId</text><text fill="#000000" font-family="sans-serif" font-size="16.8" lengthAdjust="spacing" textLength="96.6574" x="432" y="462.5461">+Degree : int</text><text fill="#000000" font-family="sans-serif" font-size="16.8" lengthAdjust="spacing" textLength="127.452" x="432" y="484.8914">+Qualifier : string</text><text fill="#000000" font-family="sans-serif" font-size="16.8" lengthAdjust="spacing" textLength="170.4035" x="432" y="507.2367">+OwnerEntityId : string</text><text fill="#000000" font-family="sans-serif" font-size="16.8" lengthAdjust="spacing" textLength="132.1359" x="432" y="529.582">+SourceId : string</text><line style="stroke:#181818;stroke-width:0.6;" x1="426" x2="608.4035" y1="538.5984" y2="538.5984"/><text fill="#000000" font-family="sans-serif" font-size="16.8" lengthAdjust="spacing" textLength="139.5762" x="432" y="561.5273">+ToString() : string</text></g><!--class TagRules--><g class="entity" data-entity="TagRules" data-source-line="61" data-uid="ent0007" id="entity_TagRules"><rect fill="#F1F1F1" height="139.7344" rx="3" ry="3" style="stroke:#181818;stroke-width:0.6;" width="415.4836" x="8.4" y="55.9453"/><ellipse cx="175.0916" cy="82.6945" fill="#ADD1B2" rx="13.2" ry="13.2" style="stroke:#181818;stroke-width:1.2;"/><path d="M178.4104,77.7445 Q178.5979,77.482 178.8229,77.3508 Q179.0479,77.2195 179.3104,77.2195 Q179.7604,77.2195 180.0416,77.5383 Q180.3229,77.8383 180.3229,78.5695 L180.3229,80.3133 Q180.3229,81.0445 180.0416,81.3633 Q179.7604,81.682 179.3104,81.682 Q178.8979,81.682 178.6541,81.4383 Q178.4104,81.2133 178.2791,80.5945 Q178.2229,80.1633 177.9979,79.9383 Q177.6041,79.4883 176.8729,79.2258 Q176.1416,78.9633 175.3916,78.9633 Q174.4729,78.9633 173.7041,79.357 Q172.9541,79.7508 172.3541,80.6508 Q171.7729,81.5508 171.7729,82.7883 L171.7729,84.1008 Q171.7729,85.582 172.8416,86.5758 Q173.9104,87.5508 175.8229,87.5508 Q176.9479,87.5508 177.7354,87.2508 Q178.2041,87.0633 178.7104,86.5383 Q179.0291,86.2195 179.1979,86.1258 Q179.3854,86.032 179.6291,86.032 Q180.0229,86.032 180.3229,86.3508 Q180.6416,86.6508 180.6416,87.0633 Q180.6416,87.4758 180.2291,87.9633 Q179.6291,88.657 178.6729,89.0508 Q177.3791,89.5945 175.8229,89.5945 Q174.0041,89.5945 172.5604,88.8445 Q171.3791,88.2445 170.5541,86.9695 Q169.7291,85.6758 169.7291,84.1383 L169.7291,82.7508 Q169.7291,81.157 170.4604,79.7883 Q171.2104,78.4008 172.5229,77.6695 Q173.8354,76.9195 175.3166,76.9195 Q176.1979,76.9195 176.9666,77.1258 Q177.7541,77.3133 178.4104,77.7445 Z " fill="#000000"/><text fill="#000000" font-family="sans-serif" font-size="14.4" font-style="italic" lengthAdjust="spacing" textLength="49.6266" x="210.8285" y="77.4844">&#171;static&#187;</text><text fill="#000000" font-family="sans-serif" font-size="16.8" lengthAdjust="spacing" textLength="71.9004" x="199.6916" y="99.2273">TagRules</text><line style="stroke:#181818;stroke-width:0.6;" x1="9.6" x2="422.6836" y1="109.4438" y2="109.4438"/><line style="stroke:#181818;stroke-width:0.6;" x1="9.6" x2="422.6836" y1="119.0437" y2="119.0437"/><text fill="#000000" font-family="sans-serif" font-size="16.8" lengthAdjust="spacing" textLength="252.5988" x="15.6" y="141.9727">+GetOpposite(tag : TagId) : TagId</text><text fill="#000000" font-family="sans-serif" font-size="16.8" lengthAdjust="spacing" textLength="401.0836" x="15.6" y="164.318">+GetAdjacencies(tag : TagId) : IReadOnlyList&lt;TagId&gt;</text><text fill="#000000" font-family="sans-serif" font-size="16.8" lengthAdjust="spacing" textLength="248.8336" x="15.6" y="186.6633">+GetAxis(tag : TagId) : TagAxisId</text></g><!--link TagPermutation to TagId--><g class="link" data-entity-1="TagPermutation" data-entity-2="TagId" data-source-line="67" data-uid="lnk8" id="link_TagPermutation_TagId"><path codeLine="67" d="M424.512,526.3453 C385.332,526.3453 348.6,526.3453 348.6,526.3453 C348.6,526.3453 348.6,573.1093 348.6,635.4013" fill="none" id="TagPermutation-to-TagId" style="stroke:#181818;stroke-width:1.2;"/><polygon fill="#181818" points="348.6,642.6013,353.4,631.8013,348.6,636.6013,343.8,631.8013,348.6,642.6013" style="stroke:#181818;stroke-width:1.2;"/></g><!--link TagRules to TagId--><g class="link" data-entity-1="TagRules" data-entity-2="TagId" data-source-line="68" data-uid="lnk9" id="link_TagRules_TagId"><path codeLine="68" d="M322.8,195.1573 C322.8,298.3693 322.8,488.4133 322.8,635.4133" fill="none" id="TagRules-to-TagId" style="stroke:#181818;stroke-width:1.2;"/><polygon fill="#181818" points="322.8,642.6133,327.6,631.8133,322.8,636.6133,318,631.8133,322.8,642.6133" style="stroke:#181818;stroke-width:1.2;"/></g><!--link TagRules to TagAxisId--><g class="link" data-entity-1="TagRules" data-entity-2="TagAxisId" data-source-line="69" data-uid="lnk10" id="link_TagRules_TagAxisId"><path codeLine="69" d="M110.1,195.1573 C110.1,318.3013 110.1,568.0933 110.1,713.9173" fill="none" id="TagRules-to-TagAxisId" style="stroke:#181818;stroke-width:1.2;"/><polygon fill="#181818" points="110.1,721.1173,114.9,710.3173,110.1,715.1173,105.3,710.3173,110.1,721.1173" style="stroke:#181818;stroke-width:1.2;"/></g><!--link TagRules to AxisPolarity--><g class="link" data-entity-1="TagRules" data-entity-2="AxisPolarity" data-source-line="70" data-uid="lnk11" id="link_TagRules_AxisPolarity"><path codeLine="70" d="M216,195.4453 C216,244.2613 216,301.6813 216,348.8653" fill="none" id="TagRules-to-AxisPolarity" style="stroke:#181818;stroke-width:1.2;"/><polygon fill="#181818" points="216,356.0653,220.8,345.2653,216,350.0653,211.2,345.2653,216,356.0653" style="stroke:#181818;stroke-width:1.2;"/></g><!--link AxisPolarity to TagAxisId--><g class="link" data-entity-1="AxisPolarity" data-entity-2="TagAxisId" data-source-line="72" data-uid="lnk12" id="link_AxisPolarity_TagAxisId"><path codeLine="72" d="M166.5,481.5373 C166.5,545.1253 166.5,637.6093 166.5,713.7853" fill="none" id="AxisPolarity-to-TagAxisId" style="stroke:#181818;stroke-width:1.2;"/><polygon fill="#181818" points="166.5,720.9853,171.3,710.1853,166.5,714.9853,161.7,710.1853,166.5,720.9853" style="stroke:#181818;stroke-width:1.2;"/><text fill="#000000" font-family="sans-serif" font-size="15.6" lengthAdjust="spacing" textLength="29.4709" x="136.5" y="596.4953">Axis</text></g><!--link AxisPolarity to TagId--><g class="link" data-entity-1="AxisPolarity" data-entity-2="TagId" data-source-line="73" data-uid="lnk13" id="link_AxisPolarity_TagId"><path codeLine="73" d="M290.004,481.5373 C290.004,524.7493 290.004,577.4293 290.004,635.2813" fill="none" id="AxisPolarity-to-TagId" style="stroke:#181818;stroke-width:1.2;"/><polygon fill="#181818" points="290.004,642.4813,294.804,631.6813,290.004,636.4813,285.204,631.6813,290.004,642.4813" style="stroke:#181818;stroke-width:1.2;"/><text fill="#000000" font-family="sans-serif" font-size="15.6" lengthAdjust="spacing" textLength="88.4508" x="201.204" y="557.2433">NegativeTag</text></g><!--link AxisPolarity to TagId--><g class="link" data-entity-1="AxisPolarity" data-entity-2="TagId" data-source-line="74" data-uid="lnk14" id="link_AxisPolarity_TagId"><path codeLine="74" d="M282.996,481.5373 C282.996,524.7493 282.996,577.4293 282.996,635.2813" fill="none" id="AxisPolarity-to-TagId-1" style="stroke:#181818;stroke-width:1.2;"/><polygon fill="#181818" points="282.996,642.4813,287.796,631.6813,282.996,636.4813,278.196,631.6813,282.996,642.4813" style="stroke:#181818;stroke-width:1.2;"/><text fill="#000000" font-family="sans-serif" font-size="15.6" lengthAdjust="spacing" textLength="81.5039" x="201.396" y="580.0433">PositiveTag</text></g><!--SRC=[TLDDZzem4BtdL_YugmYfvov2ejjjYxGKIbRjUN0chBUEXzgJfRJgV-_O925P0GViz-RZFO_ZyDEuFNYebJKE-RX7HPwVAGjz83n3IGVZTge26t0GqHP2c3DxisqO5vfSOVwWUfTbRDYYkYUFgi0Q71iTiYomRpIh-MyJrcJ16pvcVpCbloVOHNPHfk1Tnmd-YZjWyug2XlIQWkdfVrc6hga7NMBN9zWIHIpxULMXvXRSUwYw_QBUDtAe3Zb6ruM-6mOh5bkuH70oX8G6WgtOsbC53cLNWFPOHXcoSVa1lfPb0mVv_q8knJv1u9XhAR9BiFXALgG5V41t1aloMrDsPk9A2RPcUYFHrQDmoKitihHjsAV2Rc2n9DrRDBz6NpSioNIgd2XE9tf_EbbYIjnvHA5CSZHHlnePIsNG2oSt6cr4cWuE_OFSD1zJXq4eKECrZjcy7TvPAbSVnrAv-dP9AbUhQrAvAYvBKP70pUsP7yvXqrWCQZeDSHPwDal3oDLdvDL-7mU7DpAOpkljoBGapSiNqEYqmV0sRx51A5VE7XzDu6cYPtsPNDg5lgTFEFfxSqEJoQpLxIrVfzek8thqyB8X6bU9Z_IPNyf8qS6Zl9uqUAB_0G00]--></g></svg>